<svg xmlns="http://www.w3.org/2000/svg" viewBox="0 0 24 24"><path fill="#366fca" d="M5.84 19.65c-.26 0-.52-.1-.71-.29-.21-.21-.32-.52-.29-.82l.25-2.26c.03-.31.06-.51.13-.74q.105-.3.27-.57c.13-.2.28-.35.5-.56l6.79-6.79.01-.01.01-.01 1.99-1.99c1.12-1.12 2.96-1.13 4.08 0s1.12 2.96 0 4.08l-8.8 8.8c-.22.22-.36.36-.56.5q-.27.18-.57.27c-.22.07-.42.09-.71.13l-2.28.25h-.11Zm7.67-9.92-6.1 6.1c-.12.12-.19.18-.24.25-.06.16-.06.25-.08.42l-.11 1.02 1.01-.11c.18-.02.27-.02.34-.04.15-.08.21-.15.33-.28l6.1-6.1-1.25-1.25Zm1.41-1.42 1.25 1.25 1.29-1.29c.34-.35.34-.91 0-1.25s-.91-.35-1.25 0z"/></svg>