<svg width="69" height="28" viewBox="0 0 69 28" fill="none" xmlns="http://www.w3.org/2000/svg">
<rect width="69" height="28" rx="4" fill="#EAECF0"/>
<path d="M9.05 19V9.2H15.112V10.166H10.226V13.582H14.692V14.534H10.226V18.034H15.112V19H9.05ZM16.896 19V11.944H17.96L18.016 13.176C18.24 12.7373 18.5573 12.3967 18.968 12.154C19.388 11.902 19.864 11.776 20.396 11.776C20.9467 11.776 21.4227 11.888 21.824 12.112C22.2253 12.3267 22.538 12.658 22.762 13.106C22.986 13.5447 23.098 14.1047 23.098 14.786V19H21.922V14.912C21.922 14.2027 21.7633 13.6707 21.446 13.316C21.138 12.9613 20.6993 12.784 20.13 12.784C19.738 12.784 19.388 12.882 19.08 13.078C18.772 13.2647 18.5247 13.54 18.338 13.904C18.1607 14.2587 18.072 14.702 18.072 15.234V19H16.896ZM27.7071 19C27.2871 19 26.9231 18.9347 26.6151 18.804C26.3071 18.6733 26.0691 18.454 25.9011 18.146C25.7424 17.8287 25.6631 17.404 25.6631 16.872V12.938H24.4311V11.944H25.6631L25.8171 10.236H26.8391V11.944H28.8831V12.938H26.8391V16.872C26.8391 17.3107 26.9277 17.6093 27.1051 17.768C27.2824 17.9173 27.5951 17.992 28.0431 17.992H28.7991V19H27.7071ZM33.3201 19.168C32.6574 19.168 32.0694 19.014 31.5561 18.706C31.0521 18.398 30.6554 17.9687 30.3661 17.418C30.0768 16.858 29.9321 16.2093 29.9321 15.472C29.9321 14.7253 30.0721 14.0767 30.3521 13.526C30.6414 12.9753 31.0428 12.546 31.5561 12.238C32.0788 11.93 32.6761 11.776 33.3481 11.776C34.0388 11.776 34.6221 11.93 35.0981 12.238C35.5834 12.546 35.9521 12.952 36.2041 13.456C36.4654 13.9507 36.5961 14.4967 36.5961 15.094C36.5961 15.1873 36.5961 15.2853 36.5961 15.388C36.5961 15.4907 36.5914 15.6073 36.5821 15.738H30.8141V14.828H35.4481C35.4201 14.184 35.2054 13.68 34.8041 13.316C34.4121 12.952 33.9174 12.77 33.3201 12.77C32.9188 12.77 32.5454 12.8633 32.2001 13.05C31.8641 13.2273 31.5934 13.4933 31.3881 13.848C31.1828 14.1933 31.0801 14.6273 31.0801 15.15V15.542C31.0801 16.1207 31.1828 16.606 31.3881 16.998C31.6028 17.39 31.8781 17.684 32.2141 17.88C32.5594 18.076 32.9281 18.174 33.3201 18.174C33.8148 18.174 34.2208 18.0667 34.5381 17.852C34.8648 17.628 35.0981 17.3293 35.2381 16.956H36.4001C36.2881 17.376 36.0921 17.754 35.8121 18.09C35.5321 18.426 35.1821 18.692 34.7621 18.888C34.3514 19.0747 33.8708 19.168 33.3201 19.168ZM38.1831 19V11.944H39.2471L39.3311 13.288C39.4898 12.9707 39.6905 12.7 39.9331 12.476C40.1851 12.252 40.4838 12.0793 40.8291 11.958C41.1838 11.8367 41.5851 11.776 42.0331 11.776V13.008H41.5991C41.3005 13.008 41.0158 13.05 40.7451 13.134C40.4745 13.2087 40.2318 13.3347 40.0171 13.512C39.8118 13.6893 39.6485 13.932 39.5271 14.24C39.4151 14.5387 39.3591 14.912 39.3591 15.36V19H38.1831Z" fill="#475467"/>
<path d="M58.3333 8.6665V9.59984C58.3333 11.84 58.3333 12.9602 57.8973 13.8158C57.5138 14.5684 56.9019 15.1804 56.1493 15.5639C55.2936 15.9998 54.1735 15.9998 51.9333 15.9998H47.6666M47.6666 15.9998L51 12.6665M47.6666 15.9998L51 19.3332" stroke="#475467" stroke-linecap="round" stroke-linejoin="round"/>
</svg>
