<svg xmlns="http://www.w3.org/2000/svg" fill="#d03651" viewBox="0 0 24 24"><path d="M12 22.9h-.4c-.3 0-.5-.2-.8-.4l-7.4-4.1c-.4-.2-.6-.3-.8-.6-.2-.2-.3-.4-.4-.7s-.1-.6-.1-1V7.9c0-.4 0-.7.1-1 0-.3.2-.5.4-.7s.5-.4.8-.6l7.3-4c.3-.2.6-.3.9-.4h.8c.3 0 .5.2.9.4l7.4 4.1c.3.2.6.3.8.6.2.2.3.5.4.7v9.1c0 .4 0 .7-.1 1 0 .3-.2.5-.4.7s-.5.4-.8.6l-7.4 4.1c-.3.2-.6.3-.9.4h-.4Zm0-19.8s-.1 0-.3.2L4.3 7.4c-.2 0-.3.1-.3.2v8.8s.1 0 .3.1l7.4 4.1c.2 0 .2.1.3.2 0 0 .1 0 .3-.2l7.4-4.1c.2 0 .3-.1.3-.2V7.5s-.1 0-.3-.1l-7.4-4.1c-.1 0-.2-.1-.3-.2M12 17c-.6 0-1-.4-1-1s.4-1 1-1 1 .4 1 1-.4 1-1 1m0-4c-.6 0-1-.4-1-1V8c0-.6.4-1 1-1s1 .4 1 1v4c0 .6-.4 1-1 1"/></svg>