<svg xmlns="http://www.w3.org/2000/svg" width="20" height="21" fill="none" viewBox="0 0 20 21"><path stroke="#fff" stroke-linecap="round" stroke-linejoin="round" stroke-width="2" d="M1 9.298c0-.574 0-.861.074-1.126a2 2 0 0 1 .318-.65c.164-.22.39-.397.844-.75l6.782-5.275c.351-.273.527-.41.72-.462a1 1 0 0 1 .524 0c.194.052.37.189.72.462l6.783 5.275c.453.353.68.53.843.75a2 2 0 0 1 .318.65c.074.265.074.552.074 1.126v7.235c0 1.12 0 1.68-.218 2.108a2 2 0 0 1-.874.874c-.428.218-.988.218-2.108.218H4.2c-1.12 0-1.68 0-2.108-.218a2 2 0 0 1-.874-.874C1 18.213 1 17.653 1 16.533z"/></svg>