<svg xmlns="http://www.w3.org/2000/svg" viewBox="0 0 24 24"><path d="M20 23H4c-.6 0-1-.4-1-1s.4-1 1-1h1v-1.8c0-.9 0-1.4.1-1.9s.3-.9.6-1.3.7-.7 1.4-1.3l3.4-2.8-3.4-2.8c-.7-.6-1.1-.9-1.4-1.3s-.5-.8-.6-1.3-.1-1-.1-1.9V2.8H4c-.6 0-1-.4-1-1s.4-1 1-1h16c.6 0 1 .4 1 1s-.4 1-1 1h-1v1.8c0 .9 0 1.4-.1 1.9s-.3.9-.6 1.3-.7.7-1.3 1.3l-3.4 2.8 3.4 2.8c.7.6 1.1.9 1.4 1.3s.5.8.6 1.3.1 1 .1 1.9V21h1c.6 0 1 .4 1 1s-.4 1-1 1ZM7 21h10v-3.2c0-.2-.2-.4-.3-.6-.2-.2-.4-.5-1-.9l-3.6-3-3.6 3c-.6.5-.9.7-1 .9l-.3.6V21ZM7 3v3.2c0 .2.2.4.3.6.2.2.4.5 1 .9l3.6 3 3.6-3c.6-.5.9-.7 1-.9l.3-.6V3z"/></svg>