<svg width="64" height="28" viewBox="0 0 64 28" fill="none" xmlns="http://www.w3.org/2000/svg">
<rect width="64" height="28" rx="4" fill="#EAECF0"/>
<path d="M14.5334 20C14.3467 20 14.2533 20 14.182 19.9637C14.1193 19.9317 14.0683 19.8807 14.0364 19.818C14 19.7467 14 19.6534 14 19.4667V12.6667H11.3334L16 8L20.6667 12.6667H18V19.4667C18 19.6534 18 19.7467 17.9637 19.818C17.9318 19.8807 17.8808 19.9317 17.818 19.9637C17.7467 20 17.6534 20 17.4667 20H14.5334Z" stroke="#475467" stroke-linecap="round" stroke-linejoin="round"/>
<path d="M30.172 19.168C29.4533 19.168 28.828 19.0373 28.296 18.776C27.764 18.5147 27.3533 18.1507 27.064 17.684C26.7747 17.2173 26.63 16.676 26.63 16.06H27.862C27.862 16.4427 27.9507 16.7973 28.128 17.124C28.3053 17.4413 28.562 17.698 28.898 17.894C29.2433 18.0807 29.668 18.174 30.172 18.174C30.6107 18.174 30.984 18.104 31.292 17.964C31.6093 17.8147 31.8473 17.614 32.006 17.362C32.174 17.11 32.258 16.8253 32.258 16.508C32.258 16.1253 32.174 15.8173 32.006 15.584C31.8473 15.3413 31.628 15.1453 31.348 14.996C31.068 14.8467 30.7413 14.716 30.368 14.604C30.004 14.4827 29.6213 14.3567 29.22 14.226C28.4453 13.9647 27.876 13.638 27.512 13.246C27.148 12.854 26.966 12.3453 26.966 11.72C26.966 11.188 27.0873 10.7213 27.33 10.32C27.582 9.91867 27.9367 9.606 28.394 9.382C28.8607 9.14867 29.4113 9.032 30.046 9.032C30.6713 9.032 31.2127 9.14867 31.67 9.382C32.1367 9.61533 32.5007 9.93733 32.762 10.348C33.0233 10.7493 33.154 11.216 33.154 11.748H31.922C31.922 11.4773 31.852 11.2113 31.712 10.95C31.572 10.6887 31.3573 10.474 31.068 10.306C30.788 10.1287 30.4333 10.04 30.004 10.04C29.6493 10.0307 29.332 10.0913 29.052 10.222C28.7813 10.3433 28.5667 10.5207 28.408 10.754C28.2587 10.9873 28.184 11.272 28.184 11.608C28.184 11.9253 28.2493 12.182 28.38 12.378C28.52 12.574 28.716 12.742 28.968 12.882C29.2293 13.0127 29.5327 13.134 29.878 13.246C30.2233 13.358 30.606 13.484 31.026 13.624C31.502 13.7827 31.922 13.9787 32.286 14.212C32.6593 14.436 32.9487 14.7253 33.154 15.08C33.3687 15.4347 33.476 15.8873 33.476 16.438C33.476 16.9047 33.35 17.348 33.098 17.768C32.8553 18.1787 32.4913 18.5147 32.006 18.776C31.5207 19.0373 30.9093 19.168 30.172 19.168ZM35.1011 19V8.92H36.2771V13.134C36.5104 12.714 36.8371 12.3827 37.2571 12.14C37.6864 11.8973 38.1531 11.776 38.6571 11.776C39.1984 11.776 39.6698 11.888 40.0711 12.112C40.4724 12.3267 40.7804 12.658 40.9951 13.106C41.2098 13.554 41.3171 14.1187 41.3171 14.8V19H40.1551V14.926C40.1551 14.2167 40.0058 13.6847 39.7071 13.33C39.4084 12.966 38.9744 12.784 38.4051 12.784C38.0038 12.784 37.6398 12.882 37.3131 13.078C36.9958 13.274 36.7438 13.554 36.5571 13.918C36.3704 14.282 36.2771 14.73 36.2771 15.262V19H35.1011ZM43.2658 19V11.944H44.4418V19H43.2658ZM43.8538 10.446C43.6205 10.446 43.4245 10.3713 43.2658 10.222C43.1165 10.0633 43.0418 9.86733 43.0418 9.634C43.0418 9.40067 43.1165 9.214 43.2658 9.074C43.4245 8.92467 43.6205 8.85 43.8538 8.85C44.0778 8.85 44.2692 8.92467 44.4278 9.074C44.5865 9.214 44.6658 9.40067 44.6658 9.634C44.6658 9.86733 44.5865 10.0633 44.4278 10.222C44.2692 10.3713 44.0778 10.446 43.8538 10.446ZM46.9091 19V10.852C46.9091 10.404 46.9838 10.04 47.1331 9.76C47.2824 9.47067 47.5018 9.26067 47.7911 9.13C48.0898 8.99 48.4538 8.92 48.8831 8.92H49.6811V9.928H49.0651C48.7198 9.928 48.4678 9.998 48.3091 10.138C48.1598 10.278 48.0851 10.5253 48.0851 10.88V19H46.9091ZM45.8311 12.938V11.944H49.8631V12.938H45.8311ZM54.0469 19C53.6269 19 53.2629 18.9347 52.9549 18.804C52.6469 18.6733 52.4089 18.454 52.2409 18.146C52.0823 17.8287 52.0029 17.404 52.0029 16.872V12.938H50.7709V11.944H52.0029L52.1569 10.236H53.1789V11.944H55.2229V12.938H53.1789V16.872C53.1789 17.3107 53.2676 17.6093 53.4449 17.768C53.6223 17.9173 53.9349 17.992 54.3829 17.992H55.1389V19H54.0469Z" fill="#475467"/>
</svg>
