<svg xmlns="http://www.w3.org/2000/svg" viewBox="0 0 24 24"><path fill="#b02d45" d="M7 5c.007-1.232.075-1.867.327-2.362a3 3 0 0 1 1.311-1.311C9.159 1.061 9.835 1 11.2 1h1.6c1.365 0 2.041.061 2.562.327a3 3 0 0 1 1.311 1.311c.252.495.32 1.13.327 2.362h4a1 1 0 0 1 0 2h-1v10.2c0 1.925-.061 2.881-.436 3.616a4 4 0 0 1-1.748 1.748c-.735.375-1.691.436-3.616.436H9.8c-1.925 0-2.881-.061-3.616-.436a4 4 0 0 1-1.748-1.748C4.061 20.081 4 19.125 4 17.2V7H3a1 1 0 0 1 0-2zm11 2H6v10.2c0 1.436-.061 2.159.218 2.708.192.376.498.682.874.874.548.279 1.272.218 2.708.218h4.4c1.436 0 2.16.061 2.708-.218.376-.192.682-.498.874-.874.279-.548.218-1.272.218-2.708zM8.999 5h6.002c.007-.746.047-1.146-.11-1.454a1 1 0 0 0-.437-.437C14.119 2.938 13.676 3 12.8 3h-1.6c-.876 0-1.319-.062-1.654.109a1 1 0 0 0-.437.437c-.157.308-.117.708-.11 1.454M13 11.5a1 1 0 0 1 2 0v5a1 1 0 0 1-2 0zm-4 0a1 1 0 0 1 2 0v5a1 1 0 0 1-2 0z"/></svg>