<svg xmlns="http://www.w3.org/2000/svg" viewBox="0 0 24 24"><path d="M22 22c-.55 0-1-.45-1-1v-2c0-1.37-.92-2.56-2.25-2.91a.996.996 0 0 1-.72-1.22 1 1 0 0 1 1.22-.72c2.21.57 3.75 2.56 3.75 4.84v2c0 .55-.45 1-1 1Zm-5 0c-.55 0-1-.45-1-1 0-1.73 0-2.6-.23-3.15-.3-.73-.89-1.32-1.62-1.62C13.6 16 12.68 16 11 16H8c-1.73 0-2.6 0-3.15.23-.73.3-1.32.89-1.62 1.62C3 18.4 3 19.27 3 21c0 .55-.45 1-1 1s-1-.45-1-1c0-1.99 0-3 .38-3.91.5-1.22 1.49-2.2 2.71-2.71C5.01 14 6.01 14 8 14h3c1.99 0 3 0 3.91.38a5 5 0 0 1 2.71 2.71c.38.92.38 1.92.38 3.91 0 .55-.45 1-1 1M9.5 12c-2.76 0-5-2.24-5-5s2.24-5 5-5 5 2.24 5 5-2.24 5-5 5m0-8c-1.65 0-3 1.35-3 3s1.35 3 3 3 3-1.35 3-3-1.35-3-3-3m6 7.71c-.4 0-.77-.24-.93-.63a1 1 0 0 1 .55-1.3C16.26 9.32 17 8.23 17 7s-.74-2.32-1.88-2.78a.998.998 0 1 1 .75-1.85c1.9.77 3.12 2.59 3.12 4.64s-1.23 3.87-3.12 4.64c-.12.05-.25.07-.38.07Z"/></svg>