<svg xmlns="http://www.w3.org/2000/svg" viewBox="0 0 24 24"><path d="M20.2 21.5H3.8c-1.1 0-1.7 0-2.2-.4-.5-.3-.8-.8-.8-1.4-.1-.6.2-1.2.8-2.1L9.8 3.4l.9.5-.9-.5c.5-.9.8-1.5 1.4-1.7.5-.2 1.1-.2 1.6 0 .6.3.9.8 1.4 1.7l8.2 14.2c.5.9.8 1.5.8 2.1-.1.6-.4 1.1-.8 1.4-.5.4-1.1.4-2.2.4m-17.4-2h18.4c-.1-.2-.3-.5-.5-.9L12.5 4.4c-.2-.3-.4-.7-.5-.9-.1.2-.3.5-.5.9l-.9-.5.9.5-8.2 14.2c-.2.3-.4.7-.5.9M12 18c-.6 0-1-.4-1-1s.4-1 1-1 1 .4 1 1-.4 1-1 1m0-4c-.6 0-1-.4-1-1V9c0-.6.4-1 1-1s1 .4 1 1v4c0 .6-.4 1-1 1"/></svg>